<?xml version="1.0" encoding="UTF-8"?>
<svg id="Layer_2" data-name="Layer 2" xmlns="http://www.w3.org/2000/svg" viewBox="0 0 2879 798">
  <defs>
    <style>
      .cls-1 {
        fill: #fff;
      }
    </style>
  </defs>
  <g id="Layer_1-2" data-name="Layer 1">
    <g>
      <path class="cls-1" d="M1188,0v236c38.4-45.43,102.29-61.12,159.22-45.72,66.35,17.96,99.87,77.91,105.77,143.23l1.05,15.95-.04,285.54h-155l.04-246.54c-1.91-38.74-28.32-71.32-70.05-58.97-22.02,6.52-40.99,34.21-40.99,57.01v248.5h-156V0h156Z"/>
      <polygon class="cls-1" points="120 798 187.75 638.68 0 195 171 195 269.51 449.01 371 195 537 195 287 798 120 798"/>
      <polygon class="cls-1" points="2693 0 2879 0 2879 1 2714 398 2528 398 2693 0"/>
      <path class="cls-1" d="M831,234v-39h149v440h-149v-42c-1.93,1.28-2.8,4.05-4.49,6.01-50.88,59.03-147.75,58.72-212.18,23.16-143.63-79.26-149.02-308-17.05-401.39,69.34-49.07,173.55-51.92,233.72,13.22ZM730.79,326.29c-104.95,10.09-102.25,171.56,5.72,179.69,127.77,9.63,131.7-192.91-5.72-179.69Z"/>
      <path class="cls-1" d="M2194.79,185.29c162.43-10.63,282.24,113.7,253.89,276.89-26.55,152.87-197.97,223.7-334.36,162.99-213.11-94.87-156.82-424.34,80.47-439.88ZM2207.8,327.3c-70.01,6.25-99.52,89.74-59.21,143.61,28.83,38.53,86.55,45.99,123.88,15.06,68.74-56.95,25.05-166.68-64.67-158.67Z"/>
      <path class="cls-1" d="M1698.79,185.29c151.03-9.57,265.41,94.66,257.2,248.2-8.98,167.78-187.65,256.77-335.66,192.68-215.73-93.4-159.89-425.77,78.47-440.88ZM1711.8,327.3c-85.38,7.62-105.55,124.43-34.47,165.87,36.32,21.18,82.09,13.9,109.64-17.7,54-61.92,6.66-155.48-75.17-148.17Z"/>
      <path class="cls-1" d="M2565.8,437.3c73.25-6.53,129.29,60.73,109.7,131.7-23.32,84.47-137.31,102.1-185.91,28.91-42.98-64.72-1.09-153.72,76.21-160.61Z"/>
    </g>
  </g>
</svg>