<?xml version="1.0" encoding="UTF-8"?>
<svg id="Layer_2" data-name="Layer 2" xmlns="http://www.w3.org/2000/svg" viewBox="0 0 1024 1024">
  <defs>
    <style>
      .cls-1 {
        fill: #fff;
      }
    </style>
  </defs>
  <g id="Layer_1-2" data-name="Layer 1">
    <g>
      <path class="cls-1" d="M874,150C778,53.9,647.8,0,512,0S246,53.9,150,150C54,246.1,0,376.2,0,512s53.9,266,150,362c96.1,96,226.2,150,362,150s266-53.9,362-150c96-96,150-226.2,150-362s-53.9-266-150-362ZM947.5,602.7h-149.8v-256.1h-90.3v163.9c12.5,19.2,18.9,42,18.9,67.1v1.6c0,26.7-6.5,50.7-18.9,71.8v30.2h216.3c-66.4,162-225.1,275.7-411.6,275.7-246.6,0-445-198.4-445-444.9S265.5,67.1,512,67.1h0c246.5,0,444.9,198.4,444.9,444.9,0,29.4-3,58-8.4,85.7-.3,1.7-.7,3.3-1,5Z"/>
      <path class="cls-1" d="M571.1,474.5c-48-10.5-60.3-17.8-59.7-34.6v-1.1c0-11.3,9.5-23.7,36.5-23.7,30.2,0,63.6,11.9,94.1,32.3l45.4-62.9c-36-28.9-80.5-43-135.6-43-77.7,0-131,42.5-131.8,105.9v1.5c-1.1,69.8,55.8,88.2,125.1,104.1,44.7,9.6,58.3,18.3,58.3,34.8l-.6.4c0,10.6-7.4,18.6-19.5,22h0c-5.4,1.8-16.8,3.5-32.5,3.5-19.3,0-45.1-2.8-73.8-12.5-13.9-5-29.7-12.3-46.8-22.3l85.4,102.7c3.6.9,24.5,5.8,41.8,5.8,82.7,0,136-41.1,136.6-108v-1.6c1.3-62.9-48.5-87-122.9-103.3Z"/>
      <polygon class="cls-1" points="134.2 347.3 134.2 681.3 224.1 681.3 224.1 608.2 263.6 562 363.6 681.3 470.7 681.3 316.3 499.7 445.5 347.3 344.4 347.3 224.1 487.9 224.1 347.3 134.2 347.3"/>
    </g>
  </g>
</svg>